<?xml version="1.0" standalone="no"?>
<!DOCTYPE svg PUBLIC "-//W3C//DTD SVG 20010904//EN"
 "http://www.w3.org/TR/2001/REC-SVG-20010904/DTD/svg10.dtd">
<svg version="1.0" xmlns="http://www.w3.org/2000/svg"
 width="667.000000pt" height="488.000000pt" viewBox="0 0 667.000000 488.000000"
 preserveAspectRatio="xMidYMid meet">

<g transform="translate(0.000000,488.000000) scale(0.100000,-0.100000)"
fill="#000000" stroke="none">
<path d="M3050 4663 c-747 -76 -1401 -384 -1920 -903 -629 -629 -953 -1472
-909 -2365 17 -355 96 -710 227 -1025 61 -146 86 -200 94 -197 4 1 543 561
1199 1245 953 994 1195 1240 1204 1230 7 -7 293 -449 635 -981 343 -532 624
-966 626 -964 2 1 -69 261 -156 577 -88 315 -158 575 -156 577 2 2 515 -354
1141 -792 626 -437 1142 -792 1146 -788 17 17 111 268 149 398 85 293 122 558
122 880 0 507 -108 967 -330 1405 -475 940 -1387 1575 -2432 1694 -123 15
-533 20 -640 9z"/>
</g>
</svg>
