<?xml version="1.0" standalone="no"?>
<!DOCTYPE svg PUBLIC "-//W3C//DTD SVG 20010904//EN"
 "http://www.w3.org/TR/2001/REC-SVG-20010904/DTD/svg10.dtd">
<svg version="1.0" xmlns="http://www.w3.org/2000/svg"
 width="240.000000pt" height="240.000000pt" viewBox="0 0 240.000000 240.000000"
 preserveAspectRatio="xMidYMid meet">

<g transform="translate(0.000000,240.000000) scale(0.100000,-0.100000)"
fill="#000000" stroke="none">
<path d="M915 2169 c-264 -28 -441 -168 -521 -410 -15 -47 -19 -108 -23 -449
-6 -384 -7 -396 -28 -435 -28 -50 -61 -74 -116 -83 l-42 -8 -3 -212 c-1 -129
1 -212 7 -212 46 0 171 25 221 45 87 34 137 66 194 122 83 82 139 186 167 313
7 34 14 196 18 431 l6 376 27 35 c42 54 80 68 196 68 l99 0 36 78 c19 42 63
135 96 205 34 70 61 132 61 137 0 12 -280 11 -395 -1z"/>
<path d="M1792 2168 c-7 -7 -12 -15 -12 -19 0 -3 -24 -58 -54 -120 -30 -63
-99 -211 -154 -329 -55 -118 -128 -273 -162 -345 -34 -71 -77 -161 -95 -200
-18 -38 -48 -104 -68 -145 -192 -409 -297 -635 -297 -642 0 -5 251 -7 557 -6
l557 3 83 175 82 175 -325 3 c-254 2 -326 5 -330 15 -4 12 67 171 217 486 38
79 69 145 69 146 0 2 33 72 73 156 41 85 114 240 163 344 49 105 101 215 115
245 15 30 25 58 22 63 -8 13 -428 8 -441 -5z"/>
</g>
</svg>
