<?xml version="1.0" standalone="no"?>
<!DOCTYPE svg PUBLIC "-//W3C//DTD SVG 20010904//EN"
 "http://www.w3.org/TR/2001/REC-SVG-20010904/DTD/svg10.dtd">
<svg version="1.0" xmlns="http://www.w3.org/2000/svg"
 width="960.000000pt" height="582.000000pt" viewBox="0 0 960.000000 582.000000"
 preserveAspectRatio="xMidYMid meet">

<g transform="translate(0.000000,582.000000) scale(0.100000,-0.100000)"
fill="#000000" stroke="none">
<path d="M4630 5383 c-191 -19 -425 -85 -586 -166 -170 -86 -298 -179 -444
-326 -152 -152 -248 -285 -330 -456 -186 -389 -217 -835 -88 -1245 31 -100 86
-230 98 -230 7 0 138 133 471 480 129 135 340 355 469 489 129 134 262 273
296 309 l60 66 138 -215 c358 -558 538 -835 546 -843 5 -5 -4 36 -20 90 -89
309 -141 505 -138 514 2 6 35 -11 73 -38 875 -612 1148 -802 1155 -802 25 0
118 312 139 463 14 100 14 353 0 454 -22 167 -77 348 -154 508 -282 587 -885
962 -1533 953 -65 0 -133 -3 -152 -5z"/>
<path d="M2617 2623 c-2 -5 -14 -46 -26 -93 -13 -47 -35 -129 -50 -182 l-28
-98 106 0 106 0 51 78 c144 218 194 295 194 298 0 8 -349 4 -353 -3z"/>
<path d="M1294 2091 c-93 -15 -182 -51 -256 -104 -149 -108 -210 -232 -229
-470 -13 -157 -5 -432 15 -541 40 -207 174 -357 376 -420 164 -52 375 -29 515
55 69 41 150 126 188 197 26 48 67 170 67 199 0 10 -44 13 -187 13 l-188 0
-22 -50 c-43 -98 -173 -141 -272 -90 -99 50 -116 113 -116 430 0 289 11 346
76 405 106 96 272 54 320 -80 l13 -35 188 0 c131 0 188 3 188 11 0 30 -35 139
-60 190 -66 129 -189 230 -326 267 -91 25 -216 34 -290 23z"/>
<path d="M3785 2089 c-283 -41 -450 -224 -449 -489 2 -210 92 -340 280 -403
44 -14 145 -35 227 -46 81 -11 156 -25 168 -31 32 -18 59 -71 59 -117 0 -150
-274 -193 -505 -79 l-69 34 -56 -48 c-30 -27 -84 -78 -120 -115 l-65 -66 48
-45 c193 -176 637 -217 889 -82 182 97 270 266 248 478 -19 182 -105 299 -266
359 -31 12 -124 31 -207 42 -165 23 -226 43 -252 83 -40 60 -9 146 65 184 40
21 57 23 150 20 88 -3 114 -7 160 -29 31 -14 63 -34 73 -44 18 -17 23 -14 133
96 63 62 114 119 114 124 0 28 -132 108 -227 139 -126 41 -269 54 -398 35z"/>
<path d="M2052 1523 c3 -555 3 -558 27 -628 54 -162 182 -285 354 -341 160
-52 375 -32 517 49 83 47 175 144 211 222 58 128 59 141 59 723 l0 532 -187 0
-188 0 0 -523 c0 -561 0 -566 -52 -628 -43 -51 -96 -72 -173 -67 -84 4 -138
38 -172 107 l-23 46 0 532 0 533 -188 0 -188 0 3 -557z"/>
<path d="M4590 1310 l0 -770 190 0 190 0 0 275 0 275 148 0 c237 0 361 39 468
146 99 99 146 224 139 368 -11 227 -143 398 -352 455 -74 20 -103 21 -431 21
l-352 0 0 -770z m687 414 c73 -54 94 -140 52 -214 -38 -67 -76 -80 -233 -80
l-136 0 0 161 0 160 144 -3 c128 -3 148 -5 173 -24z"/>
<path d="M5850 1310 l0 -770 184 0 183 0 7 38 c8 49 8 754 -1 1170 l-6 332
-184 0 -183 0 0 -770z"/>
<path d="M6437 1793 c-9 -365 -9 -1146 -1 -1207 l7 -46 319 0 c358 0 427 8
538 63 85 42 188 143 223 219 58 123 62 156 62 493 0 298 -1 313 -24 385 -30
97 -50 135 -103 198 -68 81 -153 131 -275 163 -68 17 -112 19 -408 19 l-332 0
-6 -287z m663 -75 c70 -40 90 -86 102 -226 11 -131 3 -415 -13 -477 -7 -25
-27 -55 -54 -82 -53 -50 -111 -65 -236 -61 l-84 3 -3 439 -2 438 122 -3 c112
-4 127 -6 168 -31z"/>
<path d="M7740 1310 l0 -770 530 0 530 0 0 165 0 165 -337 2 -338 3 -3 138 -3
137 291 0 290 0 0 163 0 164 -142 6 c-79 4 -209 7 -290 7 l-148 0 0 130 0 130
340 0 340 0 0 165 0 165 -530 0 -530 0 0 -770z"/>
</g>
</svg>
